<?xml version="1.0" encoding="UTF-8" standalone="no"?>
<svg width="75px" height="75px" viewBox="0 0 75 75" version="1.1" xmlns="http://www.w3.org/2000/svg" xmlns:xlink="http://www.w3.org/1999/xlink">
    <!-- Generator: Sketch 49.3 (51167) - http://www.bohemiancoding.com/sketch -->
    <title>Icons/Auto/*Auto</title>
    <desc>Created with Sketch.</desc>
    <defs>
        <path d="M28.9068008,5.29458188 L28.2078857,1.10551072 C34.2954553,1.46475435 38.057096,3.41818105 42.3516042,5.97013669 C37.7483611,5.66834678 33.1792114,5.45179043 28.9068008,5.29458188 Z M17.5600055,4.98647838 C18.2090432,3.89864573 19.0203403,2.51407406 19.4370377,1.80126903 C21.4586512,1.27976598 23.461324,1.04048068 26.1458651,1.04048068 C26.2538276,1.04048068 26.3548452,1.04553155 26.4621763,1.04616291 L27.0575484,5.22955184 C23.6065367,5.11401303 20.3903907,5.03698715 17.5600055,4.98647838 Z M16.1325013,4.96248672 C14.9562783,4.94417729 13.8488735,4.92965601 12.843749,4.91955426 C11.8840824,4.90945251 11.8165269,4.58809045 12.971915,4.11583345 C14.8716762,3.33673566 16.4273463,2.7230541 17.8870498,2.25332253 L16.1325013,4.96248672 Z M59.9848474,12.4611451 C59.9835846,12.4339966 59.9816906,12.4106363 59.9810592,12.3834878 C59.9772711,12.2729999 59.9747456,12.155567 59.9696947,12.0526554 C59.9696947,12.0526554 59.9659066,12.0444477 59.9652752,12.0406596 C59.9532794,11.818421 59.9362327,11.6170172 59.9166605,11.4257153 L56.5123694,10.6295708 L54.8588385,8.79168289 C54.8588385,8.79168289 56.8198415,8.81756863 58.9759347,9.13893069 C58.6583608,8.84976798 58.2486084,8.5959614 57.7157408,8.29669694 C55.8292383,7.23096188 49.9241316,5.97518757 44.5348458,5.72643187 C38.1404354,1.67310303 33.0074816,0 26.2841329,0 C18.8871234,0 15.9645597,1.21726137 9.07263793,3.67072491 C6.95947723,4.42204287 3.98198521,5.06034746 1.46980523,5.2598571 C0.745635727,5.2598571 0.542337925,5.5742742 0.542337925,6.18101081 L0.542337925,6.96263403 L0.542337925,7.5074974 L0.542337925,7.51507371 L0.542337925,7.60346406 L0.54991424,7.60346406 L2.93203414,7.60346406 L4.57735734,7.60346406 C4.57735734,7.60346406 4.49022971,7.8092873 4.34375427,8.18368356 C3.89675165,9.31444867 3.39924026,9.52279734 2.43704818,9.80880326 C2.26594972,9.85994339 2.10558438,9.90729536 1.95090127,9.95338461 L1.94711311,9.96222365 L0.54991424,10.3643997 L0,11.1119295 L0,11.4370798 L0,13.8204624 C0,14.0136584 0.0126271927,14.1999095 0.0347247798,14.379847 C0.0353561394,14.379847 0.0347247798,14.3811097 0.0353561394,14.3817411 C0.0947039449,14.8628371 0.232971705,15.2896362 0.46468069,15.6255196 C2.24258942,16.1545989 4.34817379,16.4848 6.39946124,16.660318 L6.39946124,15.6305704 C6.39946124,12.4485179 8.99245525,9.85678659 12.178296,9.85678659 C15.3616112,9.85678659 17.9495544,12.4485179 17.9495544,15.6305704 L17.9495544,16.9545316 L42.2935191,16.9545316 L42.2935191,15.6160492 C42.2935191,12.4428356 44.8764114,9.85678659 48.0546757,9.85678659 C51.2278893,9.85678659 53.8114129,12.4428356 53.8114129,15.6160492 L53.8114129,16.9545316 L55.0974924,16.9545316 C57.1550935,16.9545316 58.8313533,16.7512338 60,16.1931119 L60,15.7498974 L60,14.5477887 L60,14.042701 L60,13.4321762 C60,13.075458 59.993055,12.7597782 59.9835846,12.4611451 L59.9848474,12.4611451 Z M48.0525923,18.3039997 C46.4925026,18.3039997 45.2310461,17.0425431 45.2310461,15.4824535 C45.2310461,13.9248892 46.4925026,12.6609073 48.0525923,12.6609073 C49.6107878,12.6609073 50.8741385,13.9248892 50.8741385,15.4824535 C50.8741385,17.0425431 49.6107878,18.3039997 48.0525923,18.3039997 M48.0500668,11.0503088 C45.6054423,11.0503088 43.6204476,13.0371976 43.6204476,15.479928 C43.6204476,15.6914335 43.6406511,15.8972567 43.668431,16.1005545 C43.9721149,18.2541223 45.8163164,19.9158608 48.0500668,19.9158608 C50.2838172,19.9158608 52.1330696,18.2541223 52.4348595,16.1005545 C52.4645334,15.8972567 52.4847369,15.6914335 52.4847369,15.479928 C52.4847369,13.0371976 50.4946913,11.0503088 48.0500668,11.0503088 M12.1757705,18.3039997 C10.6156809,18.3039997 9.35422432,17.0425431 9.35422432,15.4824535 C9.35422432,13.9248892 10.6156809,12.6609073 12.1757705,12.6609073 C13.7339661,12.6609073 14.9973167,13.9248892 14.9973167,15.4824535 C14.9973167,17.0425431 13.7339661,18.3039997 12.1757705,18.3039997 M12.1732451,11.0503088 C9.72862058,11.0503088 7.7436259,13.0371976 7.7436259,15.479928 C7.7436259,15.6914335 7.76382941,15.8972567 7.79160923,16.1005545 C8.09529321,18.2541223 9.9394947,19.9158608 12.1732451,19.9158608 C14.4069955,19.9158608 16.2562478,18.2541223 16.5580377,16.1005545 C16.5877116,15.8972567 16.6079151,15.6914335 16.6079151,15.479928 C16.6079151,13.0371976 14.6178696,11.0503088 12.1732451,11.0503088" id="path-1"></path>
    </defs>
    <g id="Icons/Auto/*Auto" stroke="none" stroke-width="1" fill="none" fill-rule="evenodd">
        <g id="Auto" transform="translate(8.000000, 28.000000)">
            <mask id="mask-2" fill="white">
                <use xlink:href="#path-1"></use>
            </mask>
            <use id="Mask" fill="#003087" xlink:href="#path-1"></use>
            <g id="Colors/Blue" mask="url(#mask-2)" fill="#003087">
                <g transform="translate(-8.000000, -28.000000)">
                    <rect x="0" y="0" width="75" height="75"></rect>
                </g>
            </g>
        </g>
    </g>
</svg>