<?xml version="1.0" encoding="UTF-8" standalone="no"?>
<svg width="75px" height="75px" viewBox="0 0 75 75" version="1.1" xmlns="http://www.w3.org/2000/svg" xmlns:xlink="http://www.w3.org/1999/xlink">
    <!-- Generator: Sketch 49.3 (51167) - http://www.bohemiancoding.com/sketch -->
    <title>Icons/Business/*Business insurance or property</title>
    <desc>Created with Sketch.</desc>
    <defs>
        <path d="M26.4007481,16.7574722 C27.8365644,16.7574722 29.1213178,16.1251663 29.9996403,15.1259936 C30.8801209,16.1251663 32.1648743,16.7574722 33.6006906,16.7574722 C35.0372262,16.7574722 36.3212603,16.1251663 37.2017408,15.1259936 C38.0786246,16.1251663 39.3640974,16.7574722 40.800633,16.7574722 C42.2386073,16.7574722 43.5212027,16.1251663 44.4002446,15.1259936 C45.2807251,16.1251663 46.5640399,16.7574722 48.0005755,16.7574722 C48.6400748,16.7574722 49.2428875,16.6258317 49.8003813,16.3992375 L49.8003813,34.1987555 L26.4007481,34.1987555 L26.4007481,16.7574722 Z M0,11.9694997 L0,11.5019243 L60,11.5019243 L60,11.9694997 C59.9928065,14.614538 57.8484336,16.7574722 55.1990792,16.7574722 L55.1990792,42.00223 L21.0006114,42.00223 L21.0006114,16.3992375 C20.443837,16.6258317 19.8374276,16.7574722 19.2022444,16.7574722 C17.76427,16.7574722 16.4802359,16.1251663 15.6004748,15.1259936 C14.7207136,16.1251663 13.4359601,16.7574722 12.0001439,16.7574722 C11.3628026,16.7574722 10.7556738,16.6258317 10.1996187,16.3992375 L10.1996187,42.00223 L4.80020142,42.00223 L4.80020142,16.7574722 C2.15300507,16.7574722 0.0064741215,14.614538 0,11.9694997 Z M55.1992231,0 L59.5843614,9.61047369 L0.415206992,9.61047369 L4.80034529,0 L55.1992231,0 Z" id="path-1"></path>
    </defs>
    <g id="Icons/Business/*Business-insurance-or-property" stroke="none" stroke-width="1" fill="none" fill-rule="evenodd">
        <g id="Business-insurance-or-property" transform="translate(7.000000, 16.000000)">
            <mask id="mask-2" fill="white">
                <use xlink:href="#path-1"></use>
            </mask>
            <use id="Mask" fill="#003087" xlink:href="#path-1"></use>
            <g id="Colors/Blue" mask="url(#mask-2)" fill="#003087">
                <g transform="translate(-7.000000, -16.000000)">
                    <rect x="0" y="0" width="75" height="75"></rect>
                </g>
            </g>
        </g>
    </g>
</svg>