<?xml version="1.0" encoding="UTF-8" standalone="no"?>
<svg width="75px" height="75px" viewBox="0 0 75 75" version="1.1" xmlns="http://www.w3.org/2000/svg" xmlns:xlink="http://www.w3.org/1999/xlink">
    <!-- Generator: Sketch 49.3 (51167) - http://www.bohemiancoding.com/sketch -->
    <title>Icons/Home/*Home</title>
    <desc>Created with Sketch.</desc>
    <defs>
        <path d="M17.0205098,0 L0,12.7865792 L0,14.3353126 L17.0205098,1.54951124 L20.4057873,4.08924728 L20.4042316,4.08924728 L34.0550211,14.3353126 L34.0550211,16.7505899 L17.0205098,3.96634428 L2.38649623,14.9583841 L2.38649623,16.3375425 L2.38649623,17.5727954 L2.38649623,40.9399227 L1.22825213,40.9399227 L1.22825213,44.5009983 L27.5294941,44.5009983 L27.5294941,44.5017761 L58.0016594,44.5017761 L58.0016594,40.9399227 L56.8309695,40.9399227 L56.8309695,21.8852905 L30.0272253,21.8852905 L30.0272253,19.998185 L60,19.998185 L60,19.9958514 L55.171779,4.08924728 L43.8024736,4.08924728 L43.8024736,3.45139627 L43.8024736,1.7253092 L44.3959862,1.7253092 L44.3959862,0.825316981 L44.3959862,0.290922291 L37.7094407,0.290922291 L37.7094407,1.7253092 L38.3013976,1.7253092 L38.3013976,4.08924728 L22.4694687,4.08924728 L17.0205098,0 Z M17.6140224,18.8173827 L17.6140224,13.706796 L22.3839033,13.706796 L22.3854591,13.706796 L22.3854591,21.139316 L22.3839033,21.139316 L17.6140224,21.139316 L17.6140224,18.8173827 Z M11.5147665,18.8173827 L11.5147665,13.706796 L16.387326,13.706796 L16.387326,21.139316 L11.5147665,21.139316 L11.5147665,18.8173827 Z M47.9220577,31.8225426 L47.9220577,27.9448752 L52.6934944,27.9448752 L52.6934944,34.986128 L52.6927166,34.986128 L47.9220577,34.986128 L47.9220577,31.8225426 Z M42.0398268,32.2682604 L42.0398268,27.9448752 L46.6969171,27.9448752 L46.6969171,34.986128 L42.0398268,34.986128 L42.0398268,32.2682604 Z M35.9903544,31.4009386 L35.9903544,27.9448752 L40.8123525,27.9448752 L40.8123525,34.986128 L35.9903544,34.986128 L35.9903544,31.4009386 Z M17.6140224,32.5039542 L17.6140224,27.9448752 L25.4665906,27.9448752 L25.4665906,40.9492571 L17.6140224,40.9492571 L17.6140224,32.5039542 Z M8.23138953,30.9793347 L8.23138953,27.9448752 L13.2898592,27.9448752 L13.2898592,34.986128 L13.2890813,34.986128 L8.23138953,34.986128 L8.23138953,30.9793347 Z" id="path-1"></path>
    </defs>
    <g id="Icons/Home/*Home" stroke="none" stroke-width="1" fill="none" fill-rule="evenodd">
        <g id="Color" transform="translate(8.000000, 15.000000)">
            <mask id="mask-2" fill="white">
                <use xlink:href="#path-1"></use>
            </mask>
            <use id="Mask" fill="#003087" xlink:href="#path-1"></use>
            <g id="Colors/Blue" mask="url(#mask-2)" fill="#003087">
                <g transform="translate(-8.000000, -15.000000)">
                    <rect x="0" y="0" width="75" height="75"></rect>
                </g>
            </g>
        </g>
    </g>
</svg>