<?xml version="1.0" encoding="utf-8"?>
<!-- Generator: Adobe Illustrator 20.1.0, SVG Export Plug-In . SVG Version: 6.00 Build 0)  -->
<svg version="1.1" id="Layer_1" xmlns="http://www.w3.org/2000/svg" xmlns:xlink="http://www.w3.org/1999/xlink" x="0px" y="0px"
	 viewBox="0 0 200 200" style="enable-background:new 0 0 200 200;" xml:space="preserve">
<style type="text/css">
	.st0{fill:#003087;}
</style>
<g>
	<g>
		<path class="st0" d="M172.6,106.3c-3.2-9.8-16.4-9.3-24.9-2.1c0-1.8,0-3.6,0-5.4c0-11.1-5.4-15.4-14.9-15.4c-1.7,0-3.8,0-7.2,0
			V64.5h17.4l-7.6-24.4h-24.3l-7.6,24.4H121v18.9c-5.8,0-9.5,0-9.5,0s-37.6,0-45.1,0c-9.5,0-14.9,4.3-14.9,15.4c0,1.8,0,3.6,0,5.4
			c-8.5-7.3-21.7-7.7-24.9,2.1c-3,9.1,6.8,13.9,10.6,13.9c0,0,0,16.1,0,25.1c0,4.2,0.1,4.6,4.6,4.6c0.5,0,2.5,0,5.7,0v10.3h8.6
			v-10.3c22.3,0,64.7,0,87,0v10.3h8.6v-10.3c3.2,0,5.3,0,5.7,0c4.5,0,4.6-0.4,4.6-4.6c0-9,0-25.1,0-25.1
			C165.8,120.2,175.6,115.4,172.6,106.3z M142.7,122.2v9.7H56.6v-9.7v-8.8c0,0,4.6,0.4,4.6,8.8v5.1h77v-5.1h0c0-8.4,4.6-8.8,4.6-8.8
			V122.2z"/>
	</g>
</g>
</svg>
