<?xml version="1.0" encoding="utf-8"?>
<!-- Generator: Adobe Illustrator 22.1.0, SVG Export Plug-In . SVG Version: 6.00 Build 0)  -->
<svg version="1.1" id="Layer_1" xmlns="http://www.w3.org/2000/svg" xmlns:xlink="http://www.w3.org/1999/xlink" x="0px" y="0px"
	 viewBox="0 0 75 75" style="enable-background:new 0 0 75 75;" xml:space="preserve">
<style type="text/css">
	.st0{fill:#003087;}
</style>
<title>Icons/Renters/Condominium or high rise building</title>
<desc>Created with Sketch.</desc>
<g>
	<rect x="10.4" y="32.5" class="st0" width="14.3" height="1.3"/>
	<rect x="25.2" y="12.8" class="st0" width="24.1" height="1.3"/>
	<path class="st0" d="M62.4,35.8H49.8v27.5h12.6V35.8z M58.5,56.3h-4.7v-6.6h4.7V56.3z M58.5,46h-4.7v-6.6h4.7V46z"/>
	<path class="st0" d="M26.7,15.9c0,0.6,0,35,0,47.4h17h4.1c0-20.8,0-46.9,0-47.4H26.7z M35.5,61.1h-4.7V51h4.7V61.1z M35.5,46h-4.7
		v-6.6h4.7V46z M35.5,35.8h-4.7v-6.6h4.7V35.8z M35.5,25.5h-4.7v-6.6h4.7V25.5z M44.1,56.3h-4.7v-6.6h4.7V56.3z M44.1,46h-4.7v-6.6
		h4.7V46z M44.1,35.8h-4.7v-6.6h4.7V35.8z M39.4,18.9h4.7v6.6h-4.7V18.9z"/>
	<path class="st0" d="M12,63.3h12.6V35.8H12V63.3z M20.7,56.3H16v-6.6h4.7V56.3z M16,39.4h4.7V46H16V39.4z"/>
	<rect x="49.8" y="32.5" class="st0" width="14.3" height="1.3"/>
</g>
</svg>
