<?xml version="1.0" encoding="UTF-8" standalone="no"?>
<svg width="75px" height="75px" viewBox="0 0 75 75" version="1.1" xmlns="http://www.w3.org/2000/svg" xmlns:xlink="http://www.w3.org/1999/xlink">
    <!-- Generator: Sketch 49.3 (51167) - http://www.bohemiancoding.com/sketch -->
    <title>Icons/Life/*Life</title>
    <desc>Created with Sketch.</desc>
    <defs>
        <path d="M30.1944928,41.5262687 L32.1377859,49.6329479 L32.1384347,49.6329479 L32.1377859,49.6342456 L30.1944928,49.6342456 L30.1938439,49.6329479 L30.1944928,49.6329479 L30.1944928,41.5262687 Z M16.9789316,49.6328182 L18.9241713,41.5261389 L18.9241713,49.6328182 L18.9248201,49.6328182 L18.9241713,49.6341159 L18.277272,49.6341159 L16.9789316,49.6341159 L16.9789316,49.6328182 Z M45.0013482,40.7786037 C45.010432,40.7792526 44.6198269,41.6493548 44.2052144,42.565525 C43.3506845,39.2213738 42.1535641,36.8018279 42.1535641,36.8018279 L42.793326,27.0931484 L43.7828158,30.4308112 L44.3693724,30.3899339 C44.9942109,34.7320099 45.5541648,37.0470916 45.0013482,40.7786037 Z M42.7771049,27.0379965 L42.784891,27.0645992 C42.7809979,27.0730342 42.7797002,27.0756296 42.7725629,27.0918507 L42.7771049,27.0379965 Z M47.838102,30.1479144 C47.7563474,29.1175473 47.0458613,25.2380983 46.8596425,24.2200593 C46.2127433,20.6669798 44.871579,20.1076747 41.7610124,18.7658616 C40.9447644,18.4141872 40.4970608,18.141672 39.894283,17.985949 C39.8547034,18.0268263 39.8053912,18.0962528 39.7521858,18.1780074 L38.7951383,17.8483937 L38.5738819,16.3962768 C38.7438795,16.1055939 38.9865478,15.794148 39.3323826,15.5696473 C40.1285164,15.0538149 40.4678627,14.1694381 40.4678627,14.1694381 C40.4678627,14.1694381 41.152395,13.9144417 41.5949078,12.7075886 C42.0387184,11.5033308 41.6137244,10.5300621 41.6137244,10.5300621 C41.6137244,10.5300621 42.0017341,10.4002929 41.9128423,8.9838626 C41.8271946,7.56678341 40.9051848,7.0833933 40.9051848,7.0833933 C40.9051848,7.0833933 40.7689272,6.34825103 40.1531725,5.7513129 C39.5374179,5.15113055 38.7841079,5.11933711 38.7841079,5.11933711 C38.7841079,5.11933711 38.283199,4.51136861 37.5629801,4.38419484 C36.8453567,4.2589676 36.0660929,4.63335162 36.0660929,4.63335162 C36.0660929,4.63335162 35.4490406,4.2589676 34.7126006,4.47697978 C33.9774583,4.69628966 33.6958593,5.23872473 33.6958593,5.23872473 C33.6958593,5.23872473 32.8491155,5.36070774 32.3559927,5.87589129 C31.8641676,6.39172369 31.7648942,7.22549053 31.7648942,7.22549053 C31.7648942,7.22549053 31.1497884,7.68746872 30.9142574,8.55951746 C30.5911322,9.75728678 30.8883036,10.5021617 30.8883036,10.5021617 C30.8883036,10.5021617 30.486668,11.7064195 30.8980362,12.7160236 C31.3074579,13.7230322 32.182102,14.3699315 32.182102,14.3699315 C32.182102,14.3699315 32.2541239,14.9461065 32.8744205,15.448962 C33.2345299,15.743538 33.5258617,16.2152489 33.7205154,16.5922283 C33.6374631,16.988673 33.5232663,17.3961482 33.360406,17.716678 C33.360406,17.716678 33.0872419,17.8373633 32.8017498,17.9664836 C32.7706052,17.8840802 32.7401094,17.8127072 32.7089648,17.767288 C32.1243548,17.9982771 31.5708893,18.1507558 30.6618564,18.5264375 C29.6211077,18.9559735 28.7386775,19.1357037 27.9529252,19.8143964 C27.4623978,18.7911666 26.7194694,17.9288506 25.1116295,17.2131737 C21.356759,15.5436935 21.3295075,15.2212171 21.3295075,14.4296253 C20.9382535,14.1006605 20.2329581,13.5439508 19.2746129,13.0826214 C19.1052641,13.0034622 18.630309,12.9437684 18.5998132,12.9398753 C18.5978667,12.93728 18.5978667,12.9346846 18.596569,12.9320892 C18.5946225,12.7458705 18.5550429,12.2624803 18.5550429,12.2624803 C18.9119081,11.7875252 19.3044598,11.0543295 19.60228,10.134915 C20.5534879,10.0966331 21.2114175,8.22860611 20.5619229,7.58949301 C20.5716556,7.22484168 20.4911987,6.93156339 20.4911987,6.93156339 L20.7857747,4.87082918 C20.7027224,2.60181547 19.1889652,1.6343864 19.1889652,1.6343864 C17.9269602,-0.129825283 16.3729745,0.0375769289 16.3729745,0.0375769289 C13.7003787,-0.207037932 12.3060091,0.789589193 11.6020115,1.665531 C11.4170904,2.25403413 11.1069421,3.14684593 10.7987404,3.65294564 C10.3114572,4.4516748 10.9499215,6.80633615 10.9499215,6.80633615 C10.8480527,7.04251601 10.8149615,7.25793281 10.8110685,7.46167039 C10.0811169,7.88666438 10.6514524,10.1680062 11.751246,10.1680062 C11.9796397,10.9732238 12.3923056,11.8238606 13.0080603,12.4629737 C13.0080603,12.4629737 12.904245,12.9814015 12.91268,12.9392265 C12.91268,12.9392265 12.4078779,13.000218 12.2333384,13.0826214 C11.2723978,13.5439508 10.5658047,14.1006605 10.1745507,14.4296253 C10.1745507,15.2212171 10.1492458,15.5436935 6.39242867,17.2131737 C3.74319133,18.3908288 3.4395315,19.967524 2.75175497,22.0061975 C2.06462729,24.0455198 0.493771642,32.5330715 0,37.8029969 C0.23553102,37.8451719 0.464573581,37.8879957 0.69880691,37.9308196 C0.609915037,39.1824431 0.538542001,40.4334178 0.493771642,41.6824459 C0.539839692,43.2117754 0.167402212,44.9740406 0.271217538,45.7870443 C0.385414396,46.7090542 0.827927221,48.1417057 1.53387143,48.6666219 C2.37542442,49.2921092 3.34609771,49.6029064 4.02868347,49.903322 C4.27264949,49.91565 4.58085124,49.5548918 4.27394718,49.1182186 C2.71412192,46.8939752 3.05476595,45.7896397 3.05476595,45.7896397 C3.9482266,47.0328282 4.58085124,47.5116764 4.88905298,47.1295063 C4.82092418,46.9504248 3.48170648,42.9068179 3.50506493,42.9068179 C3.46094341,42.6128907 3.41811959,42.3183148 3.37789115,42.0237388 C3.42914997,40.8966936 3.69582559,39.6736193 3.8560905,38.5108877 C4.12146842,38.5595511 4.38295327,38.6082146 4.65092658,38.656878 C4.92149527,34.5198373 5.54244069,30.3769569 6.31716255,26.2464047 C6.30418564,26.4040742 6.39242867,42.7776976 6.39242867,42.7776976 C6.39242867,42.7776976 6.60395239,42.8594521 7.08864019,42.9710536 L7.08864019,50 L9.62757375,50 L15.0305126,50 L15.0305126,49.9987023 C15.2167313,49.1318443 15.7591664,43.4726114 16.6688482,39.0831697 C17.0464764,37.2320127 18.7302313,36.4248485 22.6641832,34.6255991 C22.6674275,34.6593391 23.6718407,34.2336963 23.6718407,34.2336963 C23.6718407,34.2336963 23.7782515,33.6886658 23.8716852,33.17478 C23.363639,32.6368868 23.0255903,31.9088818 22.8413181,31.2211053 C21.9523994,31.2211053 21.4962608,29.2486141 22.1191528,28.9397635 C21.382064,26.0121714 22.6336875,24.9006985 22.6336875,24.9006985 C23.9917217,21.2989556 29.5802305,24.3984919 29.5802305,24.3984919 C30.0272852,25.3263414 29.7061065,27.6855446 29.4783617,28.9994574 C30.28877,29.0357927 29.9468283,31.2068307 29.0403908,31.3281649 C28.7607382,32.1788017 28.3947892,32.821159 28.0943736,33.1741311 C28.1268159,33.4687071 28.185212,33.8807242 28.2851343,34.268734 C28.2851343,34.268734 29.2499679,34.6353318 29.2545099,34.5983476 C32.6259126,35.9440538 34.8897355,36.8407587 35.3218668,39.0831697 C35.3893468,39.4296533 35.4574756,39.784572 35.5256044,40.1381929 L35.5269021,40.1440325 C36.1595267,43.3843684 36.7512741,49.0994021 36.949172,49.9987023 L36.9478743,49.9987023 L36.949172,50 L42.4118047,50 L45.0091344,50 C45.0740189,49.0805855 45.0577978,48.1605222 44.9922644,47.2540846 C44.9825317,47.0477517 44.9663105,46.8375256 44.9481429,46.6260019 C45.2187115,46.4767674 45.4912268,46.310014 45.7572535,46.0945972 C46.3704128,45.5962837 46.8771614,44.3102713 47.0646778,43.4181084 C47.194447,42.8159795 47.1633024,41.5701956 47.2314312,40.3983801 C47.5513121,36.6383188 47.6674555,32.7900144 47.5117325,30.170624 L47.838102,30.1479144 Z" id="path-1"></path>
    </defs>
    <g id="Icons/Life/*Life" stroke="none" stroke-width="1" fill="none" fill-rule="evenodd">
        <g id="Life" transform="translate(14.000000, 13.000000)">
            <mask id="mask-2" fill="white">
                <use xlink:href="#path-1"></use>
            </mask>
            <use id="Mask" fill="#003087" xlink:href="#path-1"></use>
            <g id="Colors/Blue" mask="url(#mask-2)" fill="#003087">
                <g transform="translate(-14.000000, -13.000000)">
                    <rect x="0" y="0" width="75" height="75"></rect>
                </g>
            </g>
        </g>
    </g>
</svg>